<?xml version="1.0" encoding="utf-8"?>
<svg xmlns="http://www.w3.org/2000/svg" fill="none" height="100%" overflow="visible" preserveAspectRatio="none" style="display: block;" viewBox="0 0 48 48" width="100%">
<g id="Idea">
<path d="M22 0V6H26V0H22ZM8.44531 5.61719L5.61719 8.44531L9.85938 12.6875L12.6875 9.85938L8.44531 5.61719ZM39.5547 5.61719L35.3125 9.85938L38.1406 12.6875L42.3828 8.44531L39.5547 5.61719ZM24 10C16.2913 10 10 16.2913 10 24C10 29.5356 13.3122 34.2045 18 36.4688V42C18 44.1861 19.8139 46 22 46H26C28.1861 46 30 44.1861 30 42V36.4688C34.6878 34.2045 38 29.5356 38 24C38 16.2913 31.7087 10 24 10ZM24 14C29.5473 14 34 18.4527 34 24C34 28.3687 31.2107 32.0457 27.332 33.418L26 33.8867V42H22V33.8867L20.668 33.418C16.7893 32.0457 14 28.3687 14 24C14 18.4527 18.4527 14 24 14ZM0 22V26H6V22H0ZM42 22V26H48V22H42ZM9.85938 35.3125L5.61719 39.5547L8.44531 42.3828L12.6875 38.1406L9.85938 35.3125ZM38.1406 35.3125L35.3125 38.1406L39.5547 42.3828L42.3828 39.5547L38.1406 35.3125Z" fill="var(--fill-0, black)" id="Vector"/>
</g>
</svg>