<?xml version="1.0" encoding="utf-8"?>
<svg xmlns="http://www.w3.org/2000/svg" fill="none" height="100%" overflow="visible" preserveAspectRatio="none" style="display: block;" viewBox="0 0 48 48" width="100%">
<g id="Web traffic">
<path d="M4 24V20H10V24H4ZM10.8 35.1L8 32.2L12.2 28L15.1 30.8L10.8 35.1ZM12.2 16L8 11.8L10.8 8.9L15.1 13.2L12.2 16ZM36 40L26.5 30.5L24 38L18 18L38 24L30.6 26.6L40 36L36 40ZM20 12V6H24V12H20ZM31.8 16L28.9 13.2L33.2 8.9L36 11.7L31.8 16Z" fill="var(--fill-0, black)" id="Vector"/>
</g>
</svg>