<?xml version="1.0" encoding="utf-8"?>
<svg xmlns="http://www.w3.org/2000/svg" fill="none" height="100%" overflow="visible" preserveAspectRatio="none" style="display: block;" viewBox="0 0 48 48" width="100%">
<g clip-path="url(#clip0_0_2025)" id="Info">
<g id="Vector">
</g>
<path d="M22 14H26V18H22V14ZM22 22H26V34H22V22ZM24 4C12.96 4 4 12.96 4 24C4 35.04 12.96 44 24 44C35.04 44 44 35.04 44 24C44 12.96 35.04 4 24 4ZM24 40C15.18 40 8 32.82 8 24C8 15.18 15.18 8 24 8C32.82 8 40 15.18 40 24C40 32.82 32.82 40 24 40Z" fill="var(--fill-0, #111111)" id="Vector_2"/>
</g>
<defs>
<clipPath id="clip0_0_2025">
<rect fill="white" height="48" width="48"/>
</clipPath>
</defs>
</svg>