<?xml version="1.0" encoding="utf-8"?>
<svg xmlns="http://www.w3.org/2000/svg" fill="none" height="100%" overflow="visible" preserveAspectRatio="none" style="display: block;" viewBox="0 0 48 48" width="100%">
<g id="User attributes">
<path d="M28 14V10H44V14H28ZM28 22V18H44V22H28ZM28 30V26H44V30H28ZM16 28C14.3333 28 12.9167 27.4167 11.75 26.25C10.5833 25.0833 10 23.6667 10 22C10 20.3333 10.5833 18.9167 11.75 17.75C12.9167 16.5833 14.3333 16 16 16C17.6667 16 19.0833 16.5833 20.25 17.75C21.4167 18.9167 22 20.3333 22 22C22 23.6667 21.4167 25.0833 20.25 26.25C19.0833 27.4167 17.6667 28 16 28ZM4 40V36.2C4 35.5 4.16667 34.8333 4.5 34.2C4.83333 33.5667 5.3 33.0667 5.9 32.7C7.4 31.8 8.99167 31.125 10.675 30.675C12.3583 30.225 14.1333 30 16 30C17.8667 30 19.6417 30.225 21.325 30.675C23.0083 31.125 24.6 31.8 26.1 32.7C26.7 33.0667 27.1667 33.5667 27.5 34.2C27.8333 34.8333 28 35.5 28 36.2V40H4ZM8.3 36H23.7C22.5333 35.3333 21.3 34.8333 20 34.5C18.7 34.1667 17.3667 34 16 34C14.6333 34 13.3 34.1667 12 34.5C10.7 34.8333 9.46667 35.3333 8.3 36ZM16 24C16.5667 24 17.0417 23.8083 17.425 23.425C17.8083 23.0417 18 22.5667 18 22C18 21.4333 17.8083 20.9583 17.425 20.575C17.0417 20.1917 16.5667 20 16 20C15.4333 20 14.9583 20.1917 14.575 20.575C14.1917 20.9583 14 21.4333 14 22C14 22.5667 14.1917 23.0417 14.575 23.425C14.9583 23.8083 15.4333 24 16 24Z" fill="var(--fill-0, black)" id="Vector"/>
</g>
</svg>