<?xml version="1.0" encoding="utf-8"?>
<svg xmlns="http://www.w3.org/2000/svg" fill="none" height="100%" overflow="visible" preserveAspectRatio="none" style="display: block;" viewBox="0 0 128.9 28.6365" width="100%">
<g id="Frame 2147236732">
<g id="">
<path d="M120.991 28.5274C118.519 28.5274 116.582 27.9819 115.182 26.891C113.782 25.8001 113.082 24.2819 113.082 22.3365V17.9183C113.082 15.9546 113.782 14.4183 115.182 13.3092C116.582 12.1819 118.528 11.6183 121.019 11.6183C123.491 11.6183 125.419 12.191 126.8 13.3365C128.2 14.4819 128.9 16.0546 128.9 18.0546V22.4728C128.9 24.3637 128.2 25.8455 126.8 26.9183C125.4 27.991 123.464 28.5274 120.991 28.5274ZM120.991 24.7092C121.864 24.7092 122.491 24.5001 122.873 24.0819C123.255 23.6637 123.446 22.991 123.446 22.0637V18.1637C123.446 17.2001 123.255 16.5092 122.873 16.091C122.491 15.6546 121.864 15.4365 120.991 15.4365C120.119 15.4365 119.491 15.6546 119.109 16.091C118.728 16.5092 118.537 17.1819 118.537 18.1092V21.9274C118.537 22.9092 118.728 23.6183 119.109 24.0546C119.491 24.491 120.119 24.7092 120.991 24.7092Z" fill="var(--fill-0, #111111)" id="Vector"/>
<path d="M102.19 28.5274C99.5897 28.5274 97.617 27.9183 96.2716 26.7001C94.9443 25.4637 94.2806 23.6546 94.2806 21.2728V16.5001C94.2806 13.3183 94.9079 10.9274 96.1625 9.32737C97.4352 7.72737 99.4261 6.80918 102.135 6.57282L108.653 6.00009L109.062 10.2274L102.981 10.8001C101.817 10.9274 100.953 11.291 100.39 11.891C99.8443 12.491 99.5534 13.391 99.517 14.591L99.4625 16.3637H100.09C100.562 15.4365 101.172 14.7365 101.917 14.2637C102.681 13.7728 103.644 13.5274 104.808 13.5274C106.299 13.5274 107.553 14.0183 108.572 15.0001C109.59 15.9819 110.099 17.291 110.099 18.9274V21.9819C110.099 24.1274 109.426 25.7546 108.081 26.8637C106.753 27.9728 104.79 28.5274 102.19 28.5274ZM102.162 24.7092C103.053 24.7092 103.681 24.5092 104.044 24.1092C104.408 23.7092 104.59 23.1092 104.59 22.3092V19.5001C104.59 18.7728 104.408 18.2365 104.044 17.891C103.681 17.5455 103.053 17.3728 102.162 17.3728C101.272 17.3728 100.644 17.5455 100.281 17.891C99.917 18.2365 99.7352 18.7728 99.7352 19.5001V22.3092C99.7352 23.1092 99.917 23.7092 100.281 24.1092C100.644 24.5092 101.272 24.7092 102.162 24.7092Z" fill="var(--fill-0, #111111)" id="Vector_2"/>
<path d="M81.5609 25.2546C82.1245 25.2546 82.67 25.1819 83.1973 25.0365C83.7245 24.891 84.2427 24.7001 84.7518 24.4637V21.791H81.4791C80.9155 21.791 80.4973 21.9183 80.2245 22.1728C79.97 22.4092 79.8427 22.9001 79.8427 23.6455C79.8427 24.1728 79.9791 24.5728 80.2518 24.8455C80.5245 25.1183 80.9609 25.2546 81.5609 25.2546ZM80.1155 28.5274C78.5336 28.5274 77.27 28.1001 76.3245 27.2455C75.3973 26.391 74.9336 25.2274 74.9336 23.7546C74.9336 22.2092 75.4791 21.0455 76.57 20.2637C77.6609 19.4637 79.1609 19.0637 81.07 19.0637H84.7518V17.2092C84.7518 16.4455 84.5518 15.9365 84.1518 15.6819C83.7518 15.4092 83.1609 15.2728 82.3791 15.2728C81.5609 15.2728 80.9518 15.4365 80.5518 15.7637C80.17 16.0728 79.8973 16.6546 79.7336 17.5092L75.3427 16.8274C75.7427 14.8819 76.47 13.5274 77.5245 12.7637C78.5973 12.0001 80.2791 11.6183 82.57 11.6183C85.0609 11.6183 86.9064 12.0819 88.1064 13.0092C89.3245 13.9183 89.9336 15.3092 89.9336 17.1819V23.0728C89.9336 23.7819 90.1427 24.2183 90.5609 24.3819C90.9973 24.5274 91.6064 24.5546 92.3882 24.4637V28.1183C90.8609 28.4819 89.6336 28.4728 88.7064 28.091C87.7791 27.7092 87.1336 26.9455 86.77 25.8001H85.9518C85.37 26.5274 84.5609 27.1637 83.5245 27.7092C82.5064 28.2546 81.37 28.5274 80.1155 28.5274Z" fill="var(--fill-0, #111111)" id="Vector_3"/>
<path d="M67.3139 28.2546V15.7092H63.6321L63.5775 22.0637C63.5593 24.2819 63.0866 25.9365 62.1593 27.0274C61.2503 28.1001 59.8593 28.6365 57.9866 28.6365C57.5321 28.6365 57.0593 28.5819 56.5684 28.4728C56.0775 28.3819 55.5775 28.2728 55.0684 28.1455L55.6139 24.3001C55.8503 24.3546 56.0775 24.4092 56.2957 24.4637C56.5321 24.5183 56.7503 24.5455 56.9503 24.5455C57.3866 24.5455 57.7412 24.3637 58.0139 24.0001C58.2866 23.6183 58.4321 22.8637 58.4503 21.7365L58.5593 11.891H72.7684V28.2546H67.3139Z" fill="var(--fill-0, #111111)" id="Vector_4"/>
<path d="M48.5123 28.2546V15.7092H44.8305L44.776 22.0637C44.7578 24.2819 44.2851 25.9365 43.3578 27.0274C42.4487 28.1001 41.0578 28.6365 39.1851 28.6365C38.7305 28.6365 38.2578 28.5819 37.7669 28.4728C37.276 28.3819 36.776 28.2728 36.2669 28.1455L36.8123 24.3001C37.0487 24.3546 37.276 24.4092 37.4941 24.4637C37.7305 24.5183 37.9487 24.5455 38.1487 24.5455C38.5851 24.5455 38.9396 24.3637 39.2123 24.0001C39.4851 23.6183 39.6305 22.8637 39.6487 21.7365L39.7578 11.891H53.9669V28.2546H48.5123Z" fill="var(--fill-0, #111111)" id="Vector_5"/>
<path d="M26.9835 28.5274C24.5108 28.5274 22.5744 27.9819 21.1744 26.891C19.7744 25.8001 19.0744 24.2819 19.0744 22.3365V17.9183C19.0744 15.9546 19.7744 14.4183 21.1744 13.3092C22.5744 12.1819 24.5199 11.6183 27.0108 11.6183C29.4835 11.6183 31.4108 12.191 32.7926 13.3365C34.1926 14.4819 34.8926 16.0546 34.8926 18.0546V22.4728C34.8926 24.3637 34.1926 25.8455 32.7926 26.9183C31.3926 27.991 29.4562 28.5274 26.9835 28.5274ZM26.9835 24.7092C27.8562 24.7092 28.4835 24.5001 28.8653 24.0819C29.2471 23.6637 29.438 22.991 29.438 22.0637V18.1637C29.438 17.2001 29.2471 16.5092 28.8653 16.091C28.4835 15.6546 27.8562 15.4365 26.9835 15.4365C26.1108 15.4365 25.4835 15.6546 25.1017 16.091C24.7199 16.5092 24.5289 17.1819 24.5289 18.1092V21.9274C24.5289 22.9092 24.7199 23.6183 25.1017 24.0546C25.4835 24.491 26.1108 24.7092 26.9835 24.7092Z" fill="var(--fill-0, #111111)" id="Vector_6"/>
<path d="M5.45466 19.1183V28.2546H0.000110984V6.43645H5.45466V15.0274H6.54557L11.7274 6.43645H17.3183L10.6092 16.5274L17.2365 28.2546H11.7274L6.62738 19.1183H5.45466Z" fill="var(--fill-0, #111111)" id="Vector_7"/>
</g>
</g>
</svg>