<svg width="160" height="26" viewBox="0 0 160 26" fill="none" xmlns="http://www.w3.org/2000/svg">
<path d="M18 26H15L16 16H19L18 26ZM26 12H23V16L24 26H21L20 16V6H23L26 12ZM93.7275 22.6611H88.9033V11.5771H85.6475L85.5996 17.1914C85.5835 19.1512 85.1648 20.6133 84.3447 21.5771C83.5407 22.5248 82.3104 22.998 80.6543 22.998C80.2524 22.998 79.8345 22.9499 79.4004 22.8535C78.9664 22.7732 78.5243 22.6769 78.0742 22.5645L78.5557 19.167C78.7647 19.2152 78.9662 19.2633 79.1592 19.3115C79.3682 19.3597 79.5614 19.3838 79.7383 19.3838C80.124 19.3837 80.4376 19.2234 80.6787 18.9023C80.9199 18.565 81.0484 17.8982 81.0645 16.9023L81.1611 8.20312H93.7275V22.6611ZM110.356 22.6611H105.533V11.5771H102.276L102.229 17.1914C102.212 19.1511 101.795 20.6133 100.975 21.5771C100.171 22.5249 98.9402 22.998 97.2842 22.998C96.8822 22.998 96.4635 22.9499 96.0293 22.8535C95.5953 22.7732 95.1532 22.6769 94.7031 22.5645L95.1855 19.167C95.3944 19.2151 95.5953 19.2634 95.7881 19.3115C95.9971 19.3597 96.1903 19.3838 96.3672 19.3838C96.753 19.3838 97.0665 19.2234 97.3076 18.9023C97.5488 18.565 97.6773 17.8982 97.6934 16.9023L97.79 8.20312H110.356V22.6611ZM142.454 6.73535L137.075 7.24121C136.046 7.35366 135.282 7.67495 134.783 8.20508C134.301 8.73521 134.044 9.53078 134.012 10.5908L133.964 12.1572H134.519C134.937 11.3379 135.475 10.7194 136.135 10.3018C136.81 9.86806 137.662 9.65039 138.691 9.65039C140.01 9.65047 141.119 10.0847 142.02 10.9521C142.92 11.8196 143.37 12.9761 143.37 14.4219V17.1211C143.37 19.0165 142.775 20.4537 141.585 21.4336C140.411 22.4134 138.675 22.9042 136.376 22.9043C134.077 22.9043 132.332 22.3654 131.142 21.2891C129.968 20.1967 129.381 18.5985 129.381 16.4941V12.2773C129.381 9.46606 129.935 7.35312 131.045 5.93945C132.17 4.5259 133.931 3.71471 136.327 3.50586L142.092 3L142.454 6.73535ZM69.8867 7.96094C72.0735 7.96095 73.7779 8.46745 75 9.47949C76.2379 10.4915 76.8574 11.8806 76.8574 13.6475V17.5518C76.8573 19.2223 76.2381 20.5318 75 21.4795C73.7619 22.4272 72.0491 22.9014 69.8623 22.9014C67.6755 22.9013 65.9627 22.4189 64.7246 21.4551C63.4866 20.4912 62.8682 19.1495 62.8682 17.4307V13.5273C62.8682 11.7925 63.4867 10.435 64.7246 9.45508C65.9628 8.45908 67.6838 7.96094 69.8867 7.96094ZM119.024 7.96094C121.227 7.96097 122.86 8.3702 123.921 9.18945C124.998 9.99268 125.536 11.2223 125.536 12.877V18.082C125.536 18.7081 125.721 19.0936 126.091 19.2383C126.477 19.3668 127.016 19.3908 127.707 19.3105V22.5391C126.356 22.8603 125.271 22.8529 124.451 22.5156C123.631 22.1783 123.06 21.5033 122.738 20.4912H122.015C121.5 21.1337 120.785 21.6958 119.868 22.1777C118.968 22.6596 117.963 22.9013 116.854 22.9014C115.455 22.9014 114.337 22.5234 113.501 21.7686C112.681 21.0135 112.271 19.9848 112.271 18.6836C112.271 17.3183 112.753 16.2903 113.718 15.5996C114.683 14.8928 116.009 14.5391 117.697 14.5391H120.954V12.9004C120.954 12.2259 120.777 11.7766 120.423 11.5518C120.069 11.3108 119.547 11.1895 118.855 11.1895C118.132 11.1895 117.593 11.3349 117.239 11.624C116.902 11.8972 116.66 12.4111 116.516 13.166L112.633 12.5635C112.987 10.8447 113.629 9.64738 114.562 8.97266C115.51 8.29795 116.998 7.96094 119.024 7.96094ZM153.029 7.96094C155.216 7.961 156.921 8.46749 158.143 9.47949C159.38 10.4915 160 11.8807 160 13.6475V17.5518C160 19.2223 159.381 20.5318 158.143 21.4795C156.904 22.4273 155.192 22.9014 153.005 22.9014C150.818 22.9014 149.105 22.4189 147.867 21.4551C146.629 20.4912 146.01 19.1495 146.01 17.4307V13.5273C146.01 11.7924 146.629 10.435 147.867 9.45508C149.105 8.45908 150.826 7.96094 153.029 7.96094ZM50.8242 10.9736H51.7891L56.3711 3.38281H61.3164L55.3828 12.2988L61.2441 22.6602H56.3711L51.8613 14.5879H50.8242V22.6602H46V3.38281H50.8242V10.9736ZM3.86523 12.8145L12 22H7.37793L0 12.8145L7.37793 4H11.6484L3.86523 12.8145ZM40 12.8145L32.6221 22H28L36.1348 12.8145L28.3516 4H32.6221L40 12.8145ZM118.06 16.9492C117.561 16.9492 117.191 17.0614 116.95 17.2861C116.725 17.495 116.612 17.9292 116.612 18.5879C116.612 19.0534 116.733 19.4066 116.974 19.6475C117.215 19.8884 117.601 20.0098 118.132 20.0098C118.63 20.0098 119.113 19.9449 119.579 19.8164C120.045 19.6879 120.504 19.5194 120.954 19.3105V16.9492H118.06ZM136.352 13.0479C135.564 13.0479 135.009 13.2008 134.688 13.5059C134.366 13.8111 134.205 14.2852 134.205 14.9277V17.4102C134.205 18.1168 134.366 18.6466 134.688 19C135.009 19.3534 135.564 19.5303 136.352 19.5303C137.139 19.5303 137.694 19.3534 138.016 19C138.337 18.6466 138.498 18.1168 138.498 17.4102V14.9277C138.498 14.2852 138.337 13.8111 138.016 13.5059C137.694 13.2008 137.139 13.0479 136.352 13.0479ZM69.8623 11.335C69.0906 11.335 68.5359 11.5276 68.1982 11.9131C67.8607 12.2826 67.6914 12.8771 67.6914 13.6963V17.0693C67.6914 17.9368 67.8606 18.5637 68.1982 18.9492C68.5359 19.3347 69.0906 19.5273 69.8623 19.5273C70.6341 19.5273 71.1887 19.3421 71.5264 18.9727C71.8639 18.6032 72.0331 18.0094 72.0332 17.1904V13.7441C72.0332 12.8927 71.864 12.2826 71.5264 11.9131C71.1887 11.5276 70.6341 11.335 69.8623 11.335ZM153.005 11.335C152.233 11.335 151.678 11.5275 151.341 11.9131C151.003 12.2826 150.834 12.877 150.834 13.6963V17.0693C150.834 17.9368 151.003 18.5637 151.341 18.9492C151.679 19.3346 152.233 19.5273 153.005 19.5273C153.777 19.5273 154.331 19.3421 154.669 18.9727C155.006 18.6032 155.176 18.0093 155.176 17.1904V13.7441C155.176 12.8928 155.007 12.2826 154.669 11.9131C154.331 11.5276 153.777 11.335 153.005 11.335ZM16 12H13L16 6H19L16 12ZM21 4H18V0H21V4Z" fill="black"/>
</svg>
